<?xml version="1.0" standalone="no"?>
<!DOCTYPE svg PUBLIC "-//W3C//DTD SVG 20010904//EN"
 "http://www.w3.org/TR/2001/REC-SVG-20010904/DTD/svg10.dtd">
<svg version="1.0" xmlns="http://www.w3.org/2000/svg"
 width="512.000000pt" height="512.000000pt" viewBox="0 0 512.000000 512.000000"
 preserveAspectRatio="xMidYMid meet">
<metadata>
Created by potrace 1.14, written by Peter Selinger 2001-2017
</metadata>
<g transform="translate(0.000000,512.000000) scale(0.100000,-0.100000)"
fill="#000000" stroke="none">
<path d="M2355 5026 c-11 -8 -141 -257 -290 -555 -265 -531 -270 -540 -309
-558 -98 -44 -161 -116 -198 -224 -29 -86 -65 -118 -178 -158 -121 -44 -183
-93 -230 -186 -32 -63 -35 -74 -34 -154 1 -69 7 -104 33 -175 17 -50 31 -91
31 -92 0 -1 -26 -10 -57 -19 -136 -40 -226 -114 -285 -232 -31 -64 -33 -73
-33 -178 0 -100 3 -116 30 -180 27 -64 30 -78 26 -155 -3 -47 -5 -132 -5 -190
-1 -99 1 -109 31 -170 18 -36 38 -73 45 -82 11 -16 -31 -62 -380 -411 -356
-356 -392 -396 -392 -425 0 -22 9 -41 25 -57 l24 -25 424 0 425 0 30 -94 c46
-142 102 -221 206 -288 117 -76 249 -96 408 -61 115 24 170 12 322 -75 162
-92 195 -104 302 -110 135 -7 232 26 358 122 77 58 147 80 235 74 75 -6 117
-24 232 -103 119 -82 173 -99 304 -99 134 0 162 9 340 109 214 120 206 117
337 126 64 4 141 15 170 24 128 37 223 119 315 272 l59 98 118 5 c114 5 119 6
142 33 l24 28 0 1825 0 1825 -25 24 -24 25 -552 0 -551 0 -73 -71 -73 -70
-621 310 c-341 171 -631 311 -644 311 -12 0 -31 -6 -42 -14z m565 -415 l475
-238 -55 -12 c-30 -6 -84 -28 -120 -49 -97 -54 -139 -51 -305 23 -128 58 -131
59 -225 59 -83 1 -102 -2 -151 -25 -83 -39 -132 -94 -189 -212 -75 -154 -107
-175 -288 -193 l-73 -7 137 274 c75 151 174 352 220 447 45 94 86 172 91 171
4 0 222 -107 483 -238z m1135 -281 l-71 -71 -79 37 c-44 20 -82 38 -84 40 -3
2 8 18 24 34 l29 30 125 0 126 0 -70 -70z m-1090 -1650 l-1720 -1720 -165 0
-165 0 280 280 c154 154 288 280 297 280 11 0 18 7 18 18 0 10 593 612 1420
1440 l1421 1422 167 0 167 0 -1720 -1720z m1835 -60 l0 -1660 -1662 0 -1663 0
1660 1660 c913 913 1661 1660 1662 1660 2 0 3 -747 3 -1660z m-1920 1555 c130
-57 138 -59 221 -60 82 0 90 2 170 43 100 50 131 58 187 42 65 -17 102 -57
157 -169 l49 -101 -72 -72 -71 -72 -28 26 c-76 70 -212 137 -335 162 -387 80
-780 -159 -883 -536 l-17 -66 -32 13 c-71 30 -198 48 -296 42 -122 -7 -193
-26 -305 -81 -102 -50 -202 -135 -272 -229 l-43 -59 -10 27 c-23 61 -29 112
-19 151 22 81 65 116 210 168 98 35 172 114 209 222 45 130 74 145 336 179
172 21 207 29 261 55 79 39 129 95 192 219 95 186 152 200 391 96z m910 0 c39
-19 70 -37 70 -38 0 -2 -18 -20 -39 -41 l-39 -38 -40 76 c-21 42 -35 76 -30
76 4 0 40 -16 78 -35z m-646 -365 c82 -21 170 -63 224 -108 l32 -27 -140 -140
-140 -140 0 138 0 137 -80 0 -80 0 0 -142 0 -143 -88 88 c-48 48 -92 87 -97
87 -13 0 -105 -92 -105 -104 0 -6 39 -50 87 -98 l88 -88 -143 0 -142 0 0 -62
0 -63 -81 78 -82 78 17 66 c81 331 404 527 730 443z m-1059 -555 c170 -36 334
-162 408 -315 58 -119 58 -115 -23 -195 -58 -58 -70 -66 -70 -47 0 21 -3 22
-97 22 l-98 0 88 88 87 87 -57 58 -58 57 -92 -92 -93 -93 0 143 0 142 -80 0
-80 0 0 -142 0 -143 -88 88 c-48 48 -92 87 -97 87 -13 0 -105 -92 -105 -104 0
-6 39 -50 87 -98 l88 -88 -143 0 -142 0 0 -80 0 -80 137 0 138 0 -84 -84 -84
-84 48 -56 c26 -31 52 -56 59 -56 6 0 50 39 98 87 l88 88 0 -103 c0 -99 1
-102 22 -102 19 0 10 -13 -52 -75 -85 -85 -79 -84 -200 -27 -103 48 -212 157
-264 262 -117 241 -74 505 114 691 150 149 342 207 545 164z m745 -148 c0 -1
-36 -38 -79 -81 l-79 -79 -39 74 c-21 41 -39 77 -41 82 -2 4 51 7 117 7 67 0
121 -1 121 -3z m-1628 -469 c9 -214 68 -349 223 -503 68 -68 110 -101 174
-134 l83 -44 -133 -132 -134 -133 -110 14 c-138 18 -203 47 -250 113 -48 65
-61 130 -47 233 18 129 15 194 -14 273 -46 123 -50 162 -25 241 23 75 36 95
92 137 30 22 95 51 130 56 4 1 9 -54 11 -121z m1060 -100 l-22 -22 -22 22 -22
22 44 0 44 0 -22 -22z m-160 -160 l-22 -22 0 44 0 44 22 -22 22 -22 -22 -22z
m-958 -805 c21 -7 58 -16 83 -20 l45 -6 -293 -293 -294 -294 -125 0 -125 0
320 320 c225 225 324 318 335 314 8 -4 32 -13 54 -21z m3350 -785 c-100 -172
-173 -217 -369 -229 -145 -8 -175 -19 -371 -129 -173 -97 -207 -110 -290 -110
-83 0 -138 22 -248 98 -110 76 -177 103 -281 109 -136 9 -234 -22 -353 -112
-79 -60 -145 -85 -222 -85 -78 0 -125 17 -261 95 -172 99 -269 121 -409 91
-161 -34 -262 -12 -354 77 -49 48 -71 88 -100 185 l-7 22 1636 0 c1306 0 1635
-3 1629 -12z"/>
<path d="M4400 3040 l0 -80 80 0 80 0 0 80 0 80 -80 0 -80 0 0 -80z"/>
<path d="M3760 2640 l0 -80 80 0 80 0 0 80 0 80 -80 0 -80 0 0 -80z"/>
<path d="M4160 2240 l0 -80 80 0 80 0 0 80 0 80 -80 0 -80 0 0 -80z"/>
<path d="M2960 2000 l0 -80 80 0 80 0 0 80 0 80 -80 0 -80 0 0 -80z"/>
<path d="M3600 1440 l0 -80 80 0 80 0 0 80 0 80 -80 0 -80 0 0 -80z"/>
<path d="M2080 1280 l0 -80 80 0 80 0 0 80 0 80 -80 0 -80 0 0 -80z"/>
<path d="M2720 1200 l0 -80 80 0 80 0 0 80 0 80 -80 0 -80 0 0 -80z"/>
<path d="M4320 1200 l0 -80 80 0 80 0 0 80 0 80 -80 0 -80 0 0 -80z"/>
</g>
</svg>
